<svg width="15" height="14" viewBox="0 0 15 14" fill="none" xmlns="http://www.w3.org/2000/svg">
<path d="M7.34928 0.333008C3.66262 0.333008 0.682617 3.31301 0.682617 6.99967C0.682617 10.6863 3.66262 13.6663 7.34928 13.6663C11.036 13.6663 14.016 10.6863 14.016 6.99967C14.016 3.31301 11.036 0.333008 7.34928 0.333008ZM10.2126 8.92301C10.4722 9.18258 10.4722 9.60343 10.2126 9.86301C9.95304 10.1226 9.53219 10.1226 9.27262 9.86301L7.34928 7.93967L5.42595 9.86301C5.16638 10.1226 4.74552 10.1226 4.48595 9.86301C4.22638 9.60343 4.22638 9.18258 4.48595 8.92301L6.40928 6.99967L4.48595 5.07634C4.22638 4.81677 4.22638 4.39592 4.48595 4.13634C4.74552 3.87677 5.16638 3.87677 5.42595 4.13634L7.34928 6.05967L9.27262 4.13634C9.53219 3.87677 9.95304 3.87677 10.2126 4.13634C10.4722 4.39592 10.4722 4.81677 10.2126 5.07634L8.28928 6.99967L10.2126 8.92301Z" fill="white" fill-opacity="0.5"/>
</svg>
