<svg width="41" height="32" viewBox="0 0 41 32" fill="none" xmlns="http://www.w3.org/2000/svg">
<path d="M0.5 8C0.5 3.58172 4.08172 0 8.5 0H32.5C36.9183 0 40.5 3.58172 40.5 8V28C40.5 30.2091 38.7091 32 36.5 32H4.5C2.29086 32 0.5 30.2091 0.5 28V8Z" fill="#DDDDDD"/>
<g clip-path="url(#clip0_458_4237)">
<path d="M20.5 8C18.2917 8 16.4062 8.78125 14.8438 10.3438C13.2812 11.9062 12.5 13.7917 12.5 16C12.5 18.2083 13.2812 20.0938 14.8438 21.6562C16.4062 23.2188 18.2917 24 20.5 24C22.7083 24 24.5938 23.2188 26.1562 21.6562C27.7188 20.0938 28.5 18.2083 28.5 16C28.5 13.7917 27.7188 11.9062 26.1562 10.3438C24.5938 8.78125 22.7083 8 20.5 8ZM13.8438 16C13.8438 14.1667 14.4948 12.599 15.7969 11.2969C17.099 9.99479 18.6667 9.34375 20.5 9.34375C22.1458 9.34375 23.5417 9.85417 24.6875 10.875L15.375 20.1875C14.3542 19.0417 13.8438 17.6458 13.8438 16ZM20.5 22.6562C18.8542 22.6562 17.4583 22.1458 16.3125 21.125L25.625 11.8125C26.6458 12.9583 27.1562 14.3542 27.1562 16C27.1562 17.8333 26.5052 19.401 25.2031 20.7031C23.901 22.0052 22.3333 22.6562 20.5 22.6562Z" fill="#1A1A1A"/>
</g>
<defs>
<clipPath id="clip0_458_4237">
<rect width="16" height="16" fill="white" transform="translate(12.5 8)"/>
</clipPath>
</defs>
</svg>
