<svg width="16" height="16" viewBox="0 0 16 16" fill="none" xmlns="http://www.w3.org/2000/svg">
<path d="M8 2C4.68548 2 2 4.68548 2 8C2 11.3145 4.68548 14 8 14C11.3145 14 14 11.3145 14 8C14 4.68548 11.3145 2 8 2ZM10.2377 9.57258L9.75379 10.1774C9.72204 10.2171 9.68277 10.2502 9.63824 10.2747C9.59371 10.2992 9.54479 10.3147 9.49426 10.3204C9.44374 10.326 9.3926 10.3216 9.34377 10.3074C9.29494 10.2933 9.24937 10.2697 9.20968 10.2379L7.58871 9.035C7.47545 8.94432 7.38403 8.82933 7.32121 8.69855C7.25839 8.56776 7.22579 8.42452 7.22581 8.27944V4.51613C7.22581 4.41346 7.26659 4.31501 7.33918 4.24241C7.41178 4.16982 7.51024 4.12903 7.6129 4.12903H8.3871C8.48976 4.12903 8.58822 4.16982 8.66082 4.24241C8.73341 4.31501 8.77419 4.41346 8.77419 4.51613V8L10.1774 9.02823C10.2171 9.06 10.2502 9.09929 10.2747 9.14385C10.2993 9.18841 10.3148 9.23736 10.3203 9.28792C10.3259 9.33847 10.3215 9.38963 10.3073 9.43848C10.2931 9.48732 10.2695 9.53289 10.2377 9.57258Z" fill="#DDDDDD" fill-opacity="0.7"/>
</svg>
