<svg width="18" height="18" viewBox="0 0 18 18" fill="none" xmlns="http://www.w3.org/2000/svg">
<path d="M9 16.75C13.4184 16.75 17 13.1684 17 8.75C17 4.3316 13.4184 0.75 9 0.75C4.5816 0.75 1 4.3316 1 8.75C1 13.1684 4.5816 16.75 9 16.75Z" stroke="#DDDDDD" stroke-linejoin="round"/>
<path d="M8.99922 6.35019C9.31748 6.35019 9.6227 6.22377 9.84775 5.99872C10.0728 5.77368 10.1992 5.46845 10.1992 5.1502C10.1992 4.83194 10.0728 4.52671 9.84775 4.30167C9.6227 4.07662 9.31748 3.9502 8.99922 3.9502C8.68096 3.9502 8.37573 4.07662 8.15069 4.30167C7.92565 4.52671 7.79922 4.83194 7.79922 5.1502C7.79922 5.46845 7.92565 5.77368 8.15069 5.99872C8.37573 6.22377 8.68096 6.35019 8.99922 6.35019ZM8.99922 13.5502C9.31748 13.5502 9.6227 13.4238 9.84775 13.1987C10.0728 12.9737 10.1992 12.6685 10.1992 12.3502C10.1992 12.0319 10.0728 11.7267 9.84775 11.5017C9.6227 11.2766 9.31748 11.1502 8.99922 11.1502C8.68096 11.1502 8.37573 11.2766 8.15069 11.5017C7.92565 11.7267 7.79922 12.0319 7.79922 12.3502C7.79922 12.6685 7.92565 12.9737 8.15069 13.1987C8.37573 13.4238 8.68096 13.5502 8.99922 13.5502ZM5.39922 9.95019C5.71748 9.95019 6.0227 9.82377 6.24775 9.59872C6.47279 9.37368 6.59922 9.06845 6.59922 8.75019C6.59922 8.43193 6.47279 8.12671 6.24775 7.90167C6.0227 7.67662 5.71748 7.55019 5.39922 7.55019C5.08096 7.55019 4.77573 7.67662 4.55069 7.90167C4.32565 8.12671 4.19922 8.43193 4.19922 8.75019C4.19922 9.06845 4.32565 9.37368 4.55069 9.59872C4.77573 9.82377 5.08096 9.95019 5.39922 9.95019ZM12.5992 9.95019C12.9175 9.95019 13.2227 9.82377 13.4477 9.59872C13.6728 9.37368 13.7992 9.06845 13.7992 8.75019C13.7992 8.43193 13.6728 8.12671 13.4477 7.90167C13.2227 7.67662 12.9175 7.55019 12.5992 7.55019C12.281 7.55019 11.9757 7.67662 11.7507 7.90167C11.5256 8.12671 11.3992 8.43193 11.3992 8.75019C11.3992 9.06845 11.5256 9.37368 11.7507 9.59872C11.9757 9.82377 12.281 9.95019 12.5992 9.95019Z" stroke="#DDDDDD" stroke-linejoin="round"/>
<path d="M9 16.75H17" stroke="#DDDDDD" stroke-linecap="round"/>
</svg>
