<svg width="18" height="17" viewBox="0 0 18 17" fill="none" xmlns="http://www.w3.org/2000/svg">
<path d="M15.875 5H2.125C1.43464 5 0.875 5.55964 0.875 6.25V15C0.875 15.6904 1.43464 16.25 2.125 16.25H15.875C16.5654 16.25 17.125 15.6904 17.125 15V6.25C17.125 5.55964 16.5654 5 15.875 5Z" stroke="#DDDDDD" stroke-linecap="round" stroke-linejoin="round"/>
<path d="M0.875 10H17.125M9 8.75V11.25M12.75 5C12.75 4.00544 12.3549 3.05161 11.6516 2.34835C10.9484 1.64509 9.99456 1.25 9 1.25C8.00544 1.25 7.05161 1.64509 6.34835 2.34835C5.64509 3.05161 5.25 4.00544 5.25 5" stroke="#DDDDDD" stroke-linecap="round" stroke-linejoin="round"/>
</svg>
