<svg width="18" height="19" viewBox="0 0 18 19" fill="none" xmlns="http://www.w3.org/2000/svg">
<path d="M16.1251 3.75012H14.5001V4.75012H16.0001V15.7501H2.00013V4.75012H3.50013V3.75012H1.87513C1.75825 3.75208 1.6429 3.77704 1.53566 3.82358C1.42843 3.87012 1.33141 3.93733 1.25016 4.02137C1.1689 4.10541 1.105 4.20463 1.0621 4.31337C1.0192 4.42211 0.998142 4.53824 1.00013 4.65512V15.8451C0.998142 15.962 1.0192 16.0781 1.0621 16.1869C1.105 16.2956 1.1689 16.3948 1.25016 16.4789C1.33141 16.5629 1.42843 16.6301 1.53566 16.6767C1.6429 16.7232 1.75825 16.7482 1.87513 16.7501H16.1251C16.242 16.7482 16.3574 16.7232 16.4646 16.6767C16.5718 16.6301 16.6688 16.5629 16.7501 16.4789C16.8314 16.3948 16.8953 16.2956 16.9382 16.1869C16.9811 16.0781 17.0021 15.962 17.0001 15.8451V4.65512C17.0021 4.53824 16.9811 4.42211 16.9382 4.31337C16.8953 4.20463 16.8314 4.10541 16.7501 4.02137C16.6688 3.93733 16.5718 3.87012 16.4646 3.82358C16.3574 3.77704 16.242 3.75208 16.1251 3.75012Z" fill="#DDDDDD"/>
<path d="M4 7.75H5V8.75H4V7.75Z" fill="#DDDDDD"/>
<path d="M6.99951 7.75H7.99951V8.75H6.99951V7.75Z" fill="#DDDDDD"/>
<path d="M10.0005 7.75H11.0005V8.75H10.0005V7.75Z" fill="#DDDDDD"/>
<path d="M13 7.75H14V8.75H13V7.75Z" fill="#DDDDDD"/>
<path d="M4 10.25H5V11.25H4V10.25Z" fill="#DDDDDD"/>
<path d="M6.99951 10.25H7.99951V11.25H6.99951V10.25Z" fill="#DDDDDD"/>
<path d="M10.0005 10.25H11.0005V11.25H10.0005V10.25Z" fill="#DDDDDD"/>
<path d="M13 10.25H14V11.25H13V10.25Z" fill="#DDDDDD"/>
<path d="M4 12.7501H5V13.7501H4V12.7501Z" fill="#DDDDDD"/>
<path d="M6.99951 12.7501H7.99951V13.7501H6.99951V12.7501Z" fill="#DDDDDD"/>
<path d="M10.0005 12.7501H11.0005V13.7501H10.0005V12.7501Z" fill="#DDDDDD"/>
<path d="M13 12.7501H14V13.7501H13V12.7501Z" fill="#DDDDDD"/>
<path d="M5 5.75C5.13261 5.75 5.25979 5.69732 5.35355 5.60355C5.44732 5.50979 5.5 5.38261 5.5 5.25V2.25C5.5 2.11739 5.44732 1.99021 5.35355 1.89645C5.25979 1.80268 5.13261 1.75 5 1.75C4.86739 1.75 4.74021 1.80268 4.64645 1.89645C4.55268 1.99021 4.5 2.11739 4.5 2.25V5.25C4.5 5.38261 4.55268 5.50979 4.64645 5.60355C4.74021 5.69732 4.86739 5.75 5 5.75Z" fill="#DDDDDD"/>
<path d="M12.9995 5.75C13.1321 5.75 13.2593 5.69732 13.3531 5.60355C13.4468 5.50979 13.4995 5.38261 13.4995 5.25V2.25C13.4995 2.11739 13.4468 1.99021 13.3531 1.89645C13.2593 1.80268 13.1321 1.75 12.9995 1.75C12.8669 1.75 12.7397 1.80268 12.646 1.89645C12.5522 1.99021 12.4995 2.11739 12.4995 2.25V5.25C12.4995 5.38261 12.5522 5.50979 12.646 5.60355C12.7397 5.69732 12.8669 5.75 12.9995 5.75Z" fill="#DDDDDD"/>
<path d="M6.50049 3.75012H11.5005V4.75012H6.50049V3.75012Z" fill="#DDDDDD"/>
</svg>
