<svg width="41" height="32" viewBox="0 0 41 32" fill="none" xmlns="http://www.w3.org/2000/svg">
<path d="M0.5 8C0.5 3.58172 4.08172 0 8.5 0H32.5C36.9183 0 40.5 3.58172 40.5 8V28C40.5 30.2091 38.7091 32 36.5 32H4.5C2.29086 32 0.5 30.2091 0.5 28V8Z" fill="#DDDDDD"/>
<g clip-path="url(#clip0_458_4230)">
<path d="M20.5003 11.9998C21.2367 11.9998 21.8337 11.4029 21.8337 10.6665C21.8337 9.93011 21.2367 9.33316 20.5003 9.33316C19.7639 9.33316 19.167 9.93011 19.167 10.6665C19.167 11.4029 19.7639 11.9998 20.5003 11.9998Z" fill="#1A1A1A"/>
<path d="M25.1668 16.6668V15.3334C24.1402 15.3468 23.1068 14.8334 22.4535 14.1134L21.5935 13.1601C21.4802 13.0334 21.3402 12.9334 21.1868 12.8601C21.1802 12.8601 21.1802 12.8534 21.1735 12.8534H21.1668C20.9335 12.7201 20.6668 12.6534 20.3735 12.6801C19.6735 12.7401 19.1668 13.3601 19.1668 14.0601V18.0001C19.1668 18.7334 19.7668 19.3334 20.5002 19.3334H23.8335V22.6668H25.1668V19.0001C25.1668 18.2668 24.5668 17.6668 23.8335 17.6668H21.8335V15.3668C22.6935 16.0801 24.0002 16.6601 25.1668 16.6668ZM21.0535 20.0001C20.7802 20.7734 20.0402 21.3334 19.1668 21.3334C18.0602 21.3334 17.1668 20.4401 17.1668 19.3334C17.1668 18.4601 17.7268 17.7268 18.5002 17.4468V16.0668C16.9802 16.3734 15.8335 17.7201 15.8335 19.3334C15.8335 21.1734 17.3268 22.6668 19.1668 22.6668C20.7802 22.6668 22.1268 21.5201 22.4335 20.0001H21.0535Z" fill="#1A1A1A"/>
</g>
<defs>
<clipPath id="clip0_458_4230">
<rect width="16" height="16" fill="white" transform="translate(12.5 8)"/>
</clipPath>
</defs>
</svg>
